<svg width="60" height="72" viewBox="0 0 60 72" fill="none" xmlns="http://www.w3.org/2000/svg">
<path d="M30 23.8125C23.2802 23.8125 17.8125 29.2802 17.8125 36C17.8125 42.7206 23.2802 48.1875 30 48.1875C36.7202 48.1875 42.1875 42.7206 42.1875 36C42.1875 29.2802 36.7206 23.8125 30 23.8125ZM38.1441 42.5829C37.6629 42.1466 37.1476 41.7496 36.6032 41.3954C37.2858 40.0153 37.701 38.5185 37.8268 36.9839H40.4309C40.2382 39.0351 39.4425 40.9833 38.1441 42.5829ZM19.5699 36.9839H22.1281C22.255 38.5267 22.674 40.0314 23.3627 41.4177C22.831 41.7665 22.3273 42.1561 21.8559 42.5829C20.5574 40.9835 19.7619 39.0351 19.5699 36.9839ZM21.8559 29.4175C22.3267 29.8448 22.8306 30.2342 23.3627 30.5822C22.6349 32.0461 22.2088 33.6414 22.1098 35.2732H19.5484C19.6961 33.1303 20.502 31.0852 21.8559 29.4175ZM29.1448 26.8833V30.8028C27.9709 30.7106 26.8214 30.4186 25.7457 29.9396C26.6404 28.6834 27.801 27.6399 29.1448 26.8833ZM29.1448 32.5176V35.2732H23.8238C23.9178 33.9333 24.2705 32.6244 24.8626 31.4187C26.21 32.0459 27.6619 32.4185 29.1448 32.5176ZM29.1448 36.9839V39.4824C27.6568 39.5822 26.2003 39.9573 24.8492 40.5886C24.3001 39.4573 23.9598 38.2361 23.8445 36.9839H29.1448ZM29.1448 41.198V45.1256C27.7918 44.3748 26.6241 43.3305 25.7275 42.0694C26.8082 41.5852 27.9642 41.2904 29.1448 41.198ZM30.8552 45.0898V41.198C32.0312 41.2914 33.1635 41.579 34.2177 42.0446C33.332 43.2924 32.1844 44.3317 30.8552 45.0898ZM30.8552 39.4824V36.9839H36.1096C35.9907 38.2283 35.6483 39.441 35.0988 40.5638C33.7621 39.9474 32.3239 39.5809 30.8552 39.4824ZM30.8552 35.2732V32.5176C32.3246 32.4196 33.7636 32.0531 35.1009 31.4362C35.6875 32.6371 36.0372 33.9399 36.1307 35.2732H30.8552ZM30.8552 30.8028V26.9093C32.1853 27.6672 33.3337 28.7065 34.2201 29.9546C33.1543 30.4249 32.0166 30.7117 30.8552 30.8028ZM35.0915 28.2674C34.2889 27.2963 33.3408 26.4552 32.2811 25.7739C34.0211 26.1632 35.6326 26.9911 36.9623 28.1789C36.578 28.5248 36.1685 28.8417 35.7371 29.1267C35.5352 28.8305 35.3198 28.5438 35.0915 28.2674ZM24.863 28.2678C24.6403 28.5379 24.4295 28.8175 24.2312 29.1059C23.8115 28.8262 23.4125 28.5165 23.0373 28.1793C24.3495 27.0073 25.9361 26.1853 27.6502 25.7893C26.5996 26.4677 25.6595 27.3036 24.863 28.2678ZM24.2317 42.8945C24.3974 43.1358 24.5721 43.3714 24.7561 43.6005C25.5753 44.6206 26.5532 45.5023 27.6523 46.2119C25.9374 45.8162 24.3502 44.994 23.0377 43.8215C23.4127 43.4841 23.8118 43.1742 24.2317 42.8945ZM35.1082 43.7122C35.3301 43.4419 35.5403 43.1621 35.7383 42.8737C36.1693 43.159 36.5786 43.4758 36.9627 43.8215C35.6328 45.0091 34.0214 45.837 32.2815 46.2265C33.3485 45.5403 34.3022 44.692 35.1082 43.7122ZM37.8451 35.2732C37.7472 33.6497 37.3249 32.0622 36.6032 30.6046C37.1477 30.2507 37.663 29.8538 38.1441 29.4175C39.4982 31.0851 40.3041 33.1302 40.4516 35.2732H37.8451Z" fill="#424242"/>
<path d="M39.1186 24H45.5618V22.6776H40.6548V19.5604H45.169V18.2429H40.6548V15.1406H45.5021V13.8182H39.1186V24ZM48.7113 19.4659C48.7113 18.2479 49.4571 17.5518 50.4912 17.5518C51.5004 17.5518 52.1119 18.2131 52.1119 19.3217V24H53.5984V19.1428C53.5984 17.2536 52.5594 16.2642 50.9983 16.2642C49.8498 16.2642 49.0991 16.7962 48.7461 17.6065H48.6517V16.3636H47.2248V24H48.7113V19.4659Z" fill="#1C1C1C"/>
</svg>
