<svg width="15" height="18" viewBox="0 0 15 18" fill="none" xmlns="http://www.w3.org/2000/svg">
<path d="M7.86894 0.607178C11.6994 0.607178 14.8043 3.72503 14.8043 7.57146C14.8043 10.5143 12.745 13.7215 8.67984 17.2272C8.4538 17.4222 8.1656 17.5293 7.86761 17.529C7.56962 17.5287 7.28161 17.4211 7.05591 17.2257L6.78703 16.9915C2.90181 13.5772 0.933594 10.4486 0.933594 7.57146C0.933594 3.72503 4.0385 0.607178 7.86894 0.607178ZM7.86894 1.67861C6.31255 1.67861 4.81991 2.29946 3.71938 3.40458C2.61884 4.50971 2.00057 6.00858 2.00057 7.57146C2.00057 10.0729 3.81301 12.955 7.48768 16.1836L7.753 16.4143C7.78526 16.4422 7.82639 16.4575 7.86894 16.4575C7.91149 16.4575 7.95263 16.4422 7.98489 16.4143C11.8374 13.0915 13.7373 10.1322 13.7373 7.57146C13.7373 6.7976 13.5855 6.03132 13.2906 5.31637C12.9957 4.60141 12.5634 3.95179 12.0185 3.40458C11.4736 2.85738 10.8267 2.42332 10.1147 2.12717C9.40269 1.83103 8.63959 1.67861 7.86894 1.67861ZM7.86894 4.89289C8.57639 4.89289 9.25487 5.1751 9.75511 5.67743C10.2554 6.17976 10.5364 6.86106 10.5364 7.57146C10.5364 8.28187 10.2554 8.96317 9.75511 9.4655C9.25487 9.96783 8.57639 10.25 7.86894 10.25C7.16149 10.25 6.48302 9.96783 5.98278 9.4655C5.48253 8.96317 5.2015 8.28187 5.2015 7.57146C5.2015 6.86106 5.48253 6.17976 5.98278 5.67743C6.48302 5.1751 7.16149 4.89289 7.86894 4.89289ZM7.86894 5.96432C7.44447 5.96432 7.03739 6.13364 6.73724 6.43504C6.4371 6.73644 6.26848 7.14522 6.26848 7.57146C6.26848 7.9977 6.4371 8.40649 6.73724 8.70788C7.03739 9.00928 7.44447 9.17861 7.86894 9.17861C8.29341 9.17861 8.7005 9.00928 9.00064 8.70788C9.30079 8.40649 9.46941 7.9977 9.46941 7.57146C9.46941 7.14522 9.30079 6.73644 9.00064 6.43504C8.7005 6.13364 8.29341 5.96432 7.86894 5.96432Z" fill="#666666"/>
</svg>
