<svg width="82" height="82" viewBox="0 0 82 82" fill="none" xmlns="http://www.w3.org/2000/svg">
<path fill-rule="evenodd" clip-rule="evenodd" d="M41.0033 0.665039C18.7283 0.665039 0.669922 18.7234 0.669922 40.9984C0.669922 63.2734 18.7283 81.3317 41.0033 81.3317C63.2783 81.3317 81.3366 63.2734 81.3366 40.9984C81.3366 18.7234 63.2783 0.665039 41.0033 0.665039ZM58.4859 34.1784C58.8078 33.8104 59.0529 33.3817 59.2067 32.9177C59.3606 32.4536 59.42 31.9634 59.3816 31.476C59.3432 30.9886 59.2077 30.5138 58.983 30.0795C58.7584 29.6452 58.4492 29.2603 58.0736 28.9473C57.698 28.6343 57.2636 28.3996 56.7959 28.2569C56.3283 28.1143 55.8368 28.0666 55.3505 28.1167C54.8641 28.1668 54.3927 28.3137 53.964 28.5487C53.5352 28.7837 53.1578 29.102 52.8539 29.485L37.0873 48.4014L28.9289 40.2394C28.2374 39.5715 27.3112 39.2019 26.3498 39.2102C25.3884 39.2186 24.4688 39.6042 23.7889 40.284C23.1091 40.9639 22.7235 41.8835 22.7151 42.8449C22.7068 43.8063 23.0763 44.7325 23.7443 45.424L34.7443 56.424C35.1045 56.7841 35.5359 57.0651 36.0108 57.2493C36.4857 57.4334 36.9937 57.5165 37.5026 57.4934C38.0114 57.4703 38.5098 57.3414 38.9661 57.115C39.4224 56.8886 39.8264 56.5696 40.1526 56.1784L58.4859 34.1784Z" fill="#1AB64F"/>
</svg>
