<svg width="78" height="28" viewBox="0 0 78 28" fill="none" xmlns="http://www.w3.org/2000/svg">
<path fill-rule="evenodd" clip-rule="evenodd" d="M77.9576 13.9935C77.9576 21.5725 71.9126 27.7164 64.4558 27.7164C56.9989 27.7164 50.9539 21.5725 50.9539 13.9935C50.9539 6.41449 56.9989 0.270508 64.4558 0.270508C71.9126 0.270508 77.9576 6.41449 77.9576 13.9935ZM59.6253 13.9935C59.6253 16.7049 61.788 18.903 64.4558 18.903C67.1235 18.903 69.2862 16.7049 69.2862 13.9935C69.2862 11.282 67.1235 9.08394 64.4558 9.08394C61.788 9.08394 59.6253 11.282 59.6253 13.9935ZM27.0662 13.9942C27.0662 21.5731 21.0212 27.7171 13.5644 27.7171C6.10749 27.7171 0.0625 21.5731 0.0625 13.9942C0.0625 6.41517 6.10749 0.271197 13.5644 0.271197C21.0212 0.271197 27.0662 6.41517 27.0662 13.9942ZM8.73393 13.9942C8.73393 16.7056 10.8966 18.9037 13.5644 18.9037C16.2321 18.9037 18.3948 16.7056 18.3948 13.9942C18.3948 11.2827 16.2321 9.08463 13.5644 9.08463C10.8966 9.08463 8.73393 11.2827 8.73393 13.9942ZM25.1427 0.37171H34.8602L38.9963 8.76011L43.1325 0.37171H52.85L43.779 18.7334V27.3731H34.2136V18.7141L25.1427 0.37171Z" fill="#EE2E24"/>
</svg>
